<svg width="241" height="196" viewBox="0 0 241 196" fill="none" xmlns="http://www.w3.org/2000/svg">
<g clip-path="url(#clip0_51_95)">
<path d="M241 21H87V175H241V21Z" fill="#F04E23"/>
<path d="M107.245 167.497C104.854 167.497 102.794 167.059 101.066 166.183C99.3377 165.307 98.006 164.106 97.0708 162.579C96.1357 161.052 95.6681 159.306 95.6681 157.341C95.6681 155.826 95.9877 154.482 96.627 153.31C97.278 152.127 98.1717 151.032 99.3081 150.026C100.456 149.008 101.776 147.99 103.268 146.972L108.523 143.065C109.553 142.391 110.376 141.669 110.991 140.899C111.619 140.13 111.932 139.124 111.932 137.881C111.932 136.957 111.524 136.064 110.707 135.2C109.902 134.335 108.843 133.903 107.529 133.903C106.606 133.903 105.789 134.14 105.079 134.614C104.38 135.075 103.83 135.667 103.427 136.389C103.037 137.099 102.841 137.833 102.841 138.591C102.841 139.443 103.072 140.307 103.534 141.183C104.007 142.047 104.605 142.935 105.327 143.847C106.061 144.746 106.819 145.67 107.6 146.616L124.29 167H119.248L105.469 150.381C104.191 148.842 103.031 147.445 101.989 146.19C100.948 144.936 100.119 143.699 99.5034 142.479C98.8878 141.26 98.5801 139.94 98.5801 138.52C98.5801 136.886 98.9411 135.454 99.6632 134.223C100.397 132.98 101.421 132.015 102.735 131.329C104.061 130.63 105.611 130.281 107.387 130.281C109.21 130.281 110.778 130.636 112.092 131.347C113.406 132.045 114.418 132.974 115.128 134.134C115.839 135.282 116.194 136.531 116.194 137.881C116.194 139.621 115.762 141.13 114.898 142.408C114.033 143.687 112.856 144.876 111.364 145.977L104.12 151.375C102.486 152.582 101.38 153.754 100.8 154.891C100.22 156.027 99.9295 156.844 99.9295 157.341C99.9295 158.477 100.225 159.537 100.817 160.519C101.409 161.502 102.244 162.295 103.321 162.898C104.398 163.502 105.659 163.804 107.103 163.804C108.476 163.804 109.814 163.514 111.116 162.934C112.418 162.342 113.595 161.49 114.649 160.377C115.714 159.264 116.555 157.927 117.17 156.364C117.798 154.802 118.111 153.044 118.111 151.091H122.16C122.16 153.506 121.881 155.477 121.325 157.004C120.769 158.531 120.141 159.726 119.443 160.59C118.745 161.454 118.182 162.099 117.756 162.526C117.614 162.703 117.484 162.881 117.366 163.058C117.247 163.236 117.117 163.413 116.975 163.591C115.803 164.905 114.323 165.887 112.536 166.538C110.749 167.178 108.985 167.497 107.245 167.497ZM140.009 167.568C137.452 167.568 135.25 166.964 133.403 165.757C131.557 164.55 130.136 162.887 129.142 160.768C128.148 158.649 127.651 156.228 127.651 153.506C127.651 150.736 128.16 148.291 129.178 146.173C130.207 144.042 131.64 142.379 133.474 141.183C135.321 139.976 137.475 139.372 139.938 139.372C141.855 139.372 143.583 139.727 145.122 140.438C146.661 141.148 147.922 142.142 148.904 143.42C149.887 144.699 150.496 146.19 150.733 147.895H146.543C146.223 146.652 145.513 145.551 144.412 144.592C143.323 143.622 141.855 143.136 140.009 143.136C138.375 143.136 136.943 143.562 135.712 144.415C134.492 145.255 133.54 146.445 132.853 147.984C132.178 149.511 131.841 151.304 131.841 153.364C131.841 155.471 132.172 157.305 132.835 158.868C133.51 160.43 134.457 161.644 135.676 162.508C136.907 163.372 138.351 163.804 140.009 163.804C141.098 163.804 142.086 163.615 142.974 163.236C143.862 162.857 144.613 162.312 145.229 161.602C145.844 160.892 146.282 160.04 146.543 159.045H150.733C150.496 160.655 149.91 162.105 148.975 163.396C148.052 164.674 146.827 165.692 145.3 166.45C143.785 167.195 142.021 167.568 140.009 167.568ZM167.938 167.568C165.476 167.568 163.316 166.982 161.457 165.81C159.611 164.638 158.167 162.999 157.125 160.892C156.095 158.785 155.58 156.323 155.58 153.506C155.58 150.665 156.095 148.185 157.125 146.066C158.167 143.947 159.611 142.302 161.457 141.13C163.316 139.958 165.476 139.372 167.938 139.372C170.4 139.372 172.555 139.958 174.401 141.13C176.26 142.302 177.704 143.947 178.734 146.066C179.775 148.185 180.296 150.665 180.296 153.506C180.296 156.323 179.775 158.785 178.734 160.892C177.704 162.999 176.26 164.638 174.401 165.81C172.555 166.982 170.4 167.568 167.938 167.568ZM167.938 163.804C169.808 163.804 171.347 163.325 172.555 162.366C173.762 161.407 174.656 160.146 175.236 158.584C175.816 157.021 176.106 155.329 176.106 153.506C176.106 151.683 175.816 149.984 175.236 148.41C174.656 146.835 173.762 145.563 172.555 144.592C171.347 143.622 169.808 143.136 167.938 143.136C166.068 143.136 164.529 143.622 163.322 144.592C162.114 145.563 161.221 146.835 160.641 148.41C160.061 149.984 159.771 151.683 159.771 153.506C159.771 155.329 160.061 157.021 160.641 158.584C161.221 160.146 162.114 161.407 163.322 162.366C164.529 163.325 166.068 163.804 167.938 163.804ZM197.772 167.568C195.31 167.568 193.15 166.982 191.291 165.81C189.445 164.638 188.001 162.999 186.959 160.892C185.929 158.785 185.414 156.323 185.414 153.506C185.414 150.665 185.929 148.185 186.959 146.066C188.001 143.947 189.445 142.302 191.291 141.13C193.15 139.958 195.31 139.372 197.772 139.372C200.234 139.372 202.389 139.958 204.235 141.13C206.094 142.302 207.538 143.947 208.568 146.066C209.609 148.185 210.13 150.665 210.13 153.506C210.13 156.323 209.609 158.785 208.568 160.892C207.538 162.999 206.094 164.638 204.235 165.81C202.389 166.982 200.234 167.568 197.772 167.568ZM197.772 163.804C199.642 163.804 201.181 163.325 202.389 162.366C203.596 161.407 204.49 160.146 205.07 158.584C205.65 157.021 205.94 155.329 205.94 153.506C205.94 151.683 205.65 149.984 205.07 148.41C204.49 146.835 203.596 145.563 202.389 144.592C201.181 143.622 199.642 143.136 197.772 143.136C195.902 143.136 194.363 143.622 193.156 144.592C191.948 145.563 191.055 146.835 190.475 148.41C189.895 149.984 189.605 151.683 189.605 153.506C189.605 155.329 189.895 157.021 190.475 158.584C191.055 160.146 191.948 161.407 193.156 162.366C194.363 163.325 195.902 163.804 197.772 163.804ZM220.433 157.057L220.362 151.872H221.214L233.146 139.727H238.331L225.618 152.582H225.262L220.433 157.057ZM216.527 167V130.636H220.717V167H216.527ZM233.856 167L223.203 153.506L226.186 150.594L239.183 167H233.856Z" fill="white"/>
<path d="M178.919 106.61C196.347 108.124 198.107 96.0576 203.299 83.4367C208.491 70.8158 224.707 67.4963 217.014 53.1094C212.447 44.5681 198.723 36.6683 190.949 36.3922C183.806 36.1356 173.928 37.5359 170.034 47.0016C166.14 56.4673 166.051 56.1612 157.311 62.5193C143.407 72.6335 154.281 104.469 178.919 106.61Z" fill="#F5F8FA"/>
<path d="M173.445 92.8149C180.34 95.6514 188.229 92.3611 191.066 85.4659C193.902 78.5706 190.612 70.6815 183.716 67.8451C176.821 65.0086 168.932 68.2989 166.096 75.1941C163.259 82.0894 166.55 89.9784 173.445 92.8149Z" fill="#FFAC33"/>
</g>
<path d="M39.5227 148.155L41.0568 153.576C40.1534 153.917 39.2756 154.419 38.4233 155.084C37.554 155.732 36.8381 156.618 36.2756 157.743C35.7131 158.868 35.4318 160.309 35.4318 162.064C35.4318 164.468 35.9858 166.471 37.0938 168.073C38.1847 169.658 39.5739 170.451 41.2614 170.451C42.7614 170.451 43.946 169.905 44.8153 168.814C45.6847 167.723 46.4091 166.019 46.9886 163.701L48.4205 157.871C49.2727 154.36 50.5767 151.743 52.3324 150.022C54.071 148.3 56.3125 147.439 59.0568 147.439C61.3068 147.439 63.3182 148.087 65.0909 149.382C66.8636 150.661 68.2614 152.451 69.2841 154.752C70.3068 157.053 70.8182 159.729 70.8182 162.78C70.8182 166.786 69.9489 170.101 68.2102 172.726C66.4716 175.351 63.9318 177.013 60.5909 177.712L59.1591 171.985C61.2727 171.439 62.858 170.408 63.9148 168.891C64.9716 167.357 65.5 165.354 65.5 162.882C65.5 160.07 64.9034 157.837 63.7102 156.184C62.5 154.513 61.0511 153.678 59.3636 153.678C58 153.678 56.858 154.155 55.9375 155.11C55 156.064 54.3011 157.53 53.8409 159.507L52.3068 166.053C51.4545 169.65 50.1335 172.292 48.3438 173.979C46.5369 175.65 44.2784 176.485 41.5682 176.485C39.3523 176.485 37.392 175.863 35.6875 174.618C33.983 173.357 32.6449 171.644 31.6733 169.479C30.7017 167.297 30.2159 164.826 30.2159 162.064C30.2159 158.178 31.0682 155.127 32.7727 152.911C34.4773 150.678 36.7273 149.093 39.5227 148.155ZM46.375 132.322H70V138.356H17.6364V132.322H36.8636V131.811C34.8352 130.89 33.2244 129.51 32.0313 127.669C30.821 125.811 30.2159 123.339 30.2159 120.254C30.2159 117.578 30.7528 115.234 31.8267 113.223C32.8835 111.211 34.5114 109.652 36.7102 108.544C38.892 107.419 41.6705 106.856 45.0455 106.856L70 106.856V112.89L45.4545 112.89C42.3352 112.89 39.9233 113.7 38.2188 115.319C36.4972 116.922 35.6364 119.146 35.6364 121.993C35.6364 123.97 36.054 125.743 36.8892 127.311C37.7244 128.862 38.9432 130.089 40.5455 130.993C42.1477 131.879 44.0909 132.322 46.375 132.322ZM70.8182 79.8626C70.8182 83.408 69.9744 86.5188 68.2869 89.195C66.5994 91.854 64.2386 93.9336 61.2045 95.4336C58.1705 96.9165 54.625 97.658 50.5682 97.658C46.4773 97.658 42.9062 96.9165 39.8551 95.4336C36.804 93.9336 34.4347 91.854 32.7472 89.195C31.0597 86.5188 30.2159 83.408 30.2159 79.8626C30.2159 76.3171 31.0597 73.2148 32.7472 70.5558C34.4347 67.8796 36.804 65.8001 39.8551 64.3171C42.9062 62.8171 46.4773 62.0671 50.5682 62.0671C54.625 62.0671 58.1705 62.8171 61.2045 64.3171C64.2386 65.8001 66.5994 67.8796 68.2869 70.5558C69.9744 73.2148 70.8182 76.3171 70.8182 79.8626ZM65.3977 79.8626C65.3977 77.1694 64.7074 74.9535 63.3267 73.2148C61.946 71.4762 60.1307 70.1893 57.8807 69.354C55.6307 68.5188 53.1932 68.1012 50.5682 68.1012C47.9432 68.1012 45.4972 68.5188 43.2301 69.354C40.9631 70.1893 39.1307 71.4762 37.733 73.2148C36.3352 74.9535 35.6364 77.1694 35.6364 79.8626C35.6364 82.5558 36.3352 84.7717 37.733 86.5103C39.1307 88.2489 40.9631 89.5359 43.2301 90.3711C45.4972 91.2063 47.9432 91.6239 50.5682 91.6239C53.1932 91.6239 55.6307 91.2063 57.8807 90.3711C60.1307 89.5359 61.946 88.2489 63.3267 86.5103C64.7074 84.7717 65.3977 82.5558 65.3977 79.8626ZM84.7273 52.8562H30.7273L30.7273 47.0266H36.9659V46.3107C36.2841 45.8675 35.4148 45.2539 34.358 44.4698C33.2841 43.6687 32.3295 42.5266 31.4943 41.0437C30.642 39.5437 30.2159 37.5153 30.2159 34.9585C30.2159 31.6516 31.0426 28.7369 32.696 26.2141C34.3494 23.6914 36.6932 21.7227 39.7273 20.3079C42.7614 18.8931 46.3409 18.1857 50.4659 18.1857C54.625 18.1857 58.2301 18.8931 61.2813 20.3079C64.3153 21.7227 66.6676 23.6829 68.3381 26.1886C69.9915 28.6942 70.8182 31.5835 70.8182 34.8562C70.8182 37.3789 70.4006 39.3988 69.5653 40.9158C68.7131 42.4329 67.75 43.6005 66.6761 44.4187C65.5852 45.2369 64.6818 45.8675 63.9659 46.3107V46.8221H84.7273V52.8562ZM50.3636 46.9244C53.3295 46.9244 55.946 46.4897 58.2131 45.6204C60.4631 44.7511 62.2273 43.4812 63.5057 41.8107C64.767 40.1403 65.3977 38.0948 65.3977 35.6744C65.3977 33.1516 64.733 31.0465 63.4034 29.359C62.0568 27.6545 60.25 26.3761 57.983 25.5238C55.6989 24.6545 53.1591 24.2198 50.3636 24.2198C47.6023 24.2198 45.1136 24.646 42.8977 25.4982C40.6648 26.3335 38.9006 27.6033 37.6051 29.3079C36.2926 30.9954 35.6364 33.1175 35.6364 35.6744C35.6364 38.1289 36.2585 40.1914 37.5028 41.8619C38.7301 43.5323 40.4517 44.7937 42.6676 45.646C44.8665 46.4982 47.4318 46.9244 50.3636 46.9244Z" fill="#434343"/>
<defs>
<clipPath id="clip0_51_95">
<rect width="154" height="154" fill="white" transform="translate(87 21)"/>
</clipPath>
</defs>
</svg>
